<?xml version="1.0" encoding="utf-8"?>
<!-- Generator: Adobe Illustrator 16.0.0, SVG Export Plug-In . SVG Version: 6.00 Build 0)  -->
<!DOCTYPE svg PUBLIC "-//W3C//DTD SVG 1.1//EN" "http://www.w3.org/Graphics/SVG/1.1/DTD/svg11.dtd">
<svg version="1.1" id="Ebene_1" xmlns="http://www.w3.org/2000/svg" xmlns:xlink="http://www.w3.org/1999/xlink" x="0px" y="0px"
	 width="400px" height="400px" viewBox="0 0 400 400" style="enable-background:new 0 0 400 400;" xml:space="preserve">
<style type="text/css">
<![CDATA[
	.st0{fill:#ABDCF0;}
	.st1{fill:#8ADBDB;}
	.st2{fill:#F3FFFF;}
	.st3{fill:#F7931E;}
	.st4{fill:#C9F4F3;}
	.st5{fill:#FFAA55;}
	.st6{fill:#FFE4D2;}
	.st7{fill:#73CBC7;}
]]>
</style>
<g>
	<circle class="st2" cx="200.093" cy="200.058" r="182.765"/>
	<path class="st5" d="M236.126,97.138c-12.489,0-21.584,4.409-32.776,17.283c-11.192-12.875-20.229-17.283-32.719-17.283
		c-12.631,0-25.833,11.811-18.759,27.609c7.073,15.796,25.48,14.32,25.48,14.32l-10.879-20.946c0,0,8.11-9.682,27.67,2.422
		L187.56,134.5h31.637l-6.529-13.957c19.561-12.104,27.667-2.089,27.667-2.089l-10.886,20.779c0,0,18.394,1.394,25.466-14.403
		C261.987,109.033,248.758,97.138,236.126,97.138z"/>
	<rect x="124.5" y="147.5" class="st7" width="152" height="128"/>
	<g>
		<path class="st1" d="M291.5,164.5c0,2.761-2.238,5-5,5h-167c-2.761,0-5-2.239-5-5v-29c0-2.761,2.239-5,5-5h167
			c2.762,0,5,2.239,5,5V164.5z"/>
	</g>
	<rect x="188.5" y="131.5" class="st5" width="27" height="144"/>
	<polygon class="st3" points="215.5,179.489 215.5,169.5 189.33,169.5 	"/>
	<path class="st6" d="M212.064,266.5h-47.743c0,0-16.562-15.164-29.556-25.129c-15.156-11.617-39.659,13.83-21.471,28.229
		c18.187,14.398,51.027,44.899,55.069,44.899c4.042,0,95.234,0,95.234,0s6.037-2.332,8.783-7.193l17.119-1.511v-59.617l-3.162,0.063
		c0,0-4.044-4.61-8.844-6.125c-4.799-1.517-44.287-8.008-59.112-11.368c-31.197-7.073-40.229,20.327-23.305,28.79
		C212.002,266.002,212.064,266.5,212.064,266.5z"/>
	<g>
		<path class="st0" d="M290.158,237.5c-2.75,0-4.658,2.215-4.658,4.965v71.088c0,2.75,1.908,4.947,4.658,4.947h40.258
			c2.75,0,6.551-1.586,8.447-3.578c0,0,25.998-27.422,36.84-77.422H290.158z"/>
	</g>
	<path class="st4" d="M200,12.029C96.186,12.029,12.029,96.187,12.029,200c0,103.813,84.157,187.971,187.971,187.971
		c103.813,0,187.971-84.157,187.971-187.971C387.971,96.187,303.813,12.029,200,12.029z M200,377.741
		c-98.164,0-177.741-79.577-177.741-177.742c0-98.164,79.577-177.74,177.741-177.74c98.163,0,177.741,79.577,177.741,177.74
		C377.741,298.164,298.163,377.741,200,377.741z"/>
</g>
</svg>
