<?xml version="1.0" encoding="utf-8"?>
<!-- Generator: Adobe Illustrator 16.0.0, SVG Export Plug-In . SVG Version: 6.00 Build 0)  -->
<!DOCTYPE svg PUBLIC "-//W3C//DTD SVG 1.1//EN" "http://www.w3.org/Graphics/SVG/1.1/DTD/svg11.dtd">
<svg version="1.1" id="Capa_1" xmlns="http://www.w3.org/2000/svg" xmlns:xlink="http://www.w3.org/1999/xlink" x="0px" y="0px"
	 width="16px" height="16px" viewBox="298 388 16 16" enable-background="new 298 388 16 16" xml:space="preserve">
<g>
	<g>
		<path fill="#FFFFFF" d="M299,396.517v6c0,0.549,0.449,1,1,1h5v-7H299L299,396.517z"/>
	</g>
</g>
<g>
	<g>
		<path fill="#FFFFFF" d="M313,392.514h-3.164c0.228-0.155,0.422-0.308,0.56-0.446c0.805-0.812,0.805-2.132,0-2.942
			c-0.785-0.79-2.153-0.788-2.935,0c-0.436,0.435-1.583,2.207-1.423,3.389h-0.073c0.156-1.182-0.992-2.954-1.426-3.389
			c-0.785-0.788-2.15-0.788-2.934,0c-0.805,0.811-0.805,2.13,0,2.942c0.136,0.139,0.332,0.292,0.559,0.446H299c-0.551,0-1,0.45-1,1
			v1.5c0,0.277,0.223,0.5,0.5,0.5h6.5v-2h2v2h6.5c0.274,0,0.5-0.223,0.5-0.5v-1.5C314,392.964,313.554,392.514,313,392.514z
			 M304.941,392.482c0,0-0.042,0.032-0.186,0.032c-0.689,0-2.009-0.718-2.439-1.15c-0.421-0.422-0.421-1.11,0-1.532
			c0.203-0.205,0.47-0.317,0.758-0.317c0.284,0,0.554,0.113,0.757,0.317C304.504,390.509,305.175,392.24,304.941,392.482z
			 M307.242,392.514c-0.141,0-0.185-0.032-0.185-0.032c-0.232-0.242,0.437-1.974,1.111-2.651c0.402-0.407,1.108-0.41,1.516,0
			c0.419,0.422,0.419,1.11,0,1.532C309.256,391.796,307.935,392.514,307.242,392.514z"/>
	</g>
</g>
<g>
	<g>
		<path fill="#FFFFFF" d="M307,396.517v7h5c0.554,0,1-0.451,1-1v-6H307L307,396.517z"/>
	</g>
</g>
</svg>
