<?xml version="1.0" encoding="utf-8"?>
<!-- Generator: Adobe Illustrator 16.0.0, SVG Export Plug-In . SVG Version: 6.00 Build 0)  -->
<!DOCTYPE svg PUBLIC "-//W3C//DTD SVG 1.1//EN" "http://www.w3.org/Graphics/SVG/1.1/DTD/svg11.dtd">
<svg version="1.1" id="Ebene_1" xmlns="http://www.w3.org/2000/svg" xmlns:xlink="http://www.w3.org/1999/xlink" x="0px" y="0px"
	 width="48px" height="48px" viewBox="0 0 48 48" style="enable-background:new 0 0 48 48;" xml:space="preserve">
<style type="text/css">
<![CDATA[
	.st0{fill:#FFFFFF;}
]]>
</style>
<path class="st0" d="M27.334,34.25V19.333h-6.667V34.25c0,0.347,0.125,0.614,0.375,0.802s0.57,0.281,0.958,0.281h4
	c0.389,0,0.709-0.094,0.959-0.281S27.334,34.597,27.334,34.25z M17.833,16.666h4.063l-2.625-3.354
	c-0.361-0.431-0.84-0.646-1.438-0.646c-0.556,0-1.028,0.195-1.417,0.584c-0.389,0.389-0.583,0.861-0.583,1.416
	c0,0.556,0.194,1.028,0.583,1.417C16.806,16.472,17.278,16.666,17.833,16.666z M32.166,14.666c0-0.555-0.193-1.027-0.582-1.416
	c-0.39-0.389-0.861-0.584-1.418-0.584c-0.597,0-1.076,0.216-1.438,0.646l-2.604,3.354h4.041c0.557,0,1.028-0.194,1.418-0.583
	C31.973,15.694,32.166,15.222,32.166,14.666z M40,20v6.666c0,0.195-0.063,0.354-0.188,0.479s-0.285,0.188-0.479,0.188h-2V36
	c0,0.556-0.194,1.027-0.583,1.416C36.361,37.806,35.889,38,35.334,38H12.667c-0.555,0-1.028-0.194-1.417-0.584
	c-0.389-0.389-0.583-0.86-0.583-1.416v-8.667h-2c-0.194,0-0.354-0.063-0.479-0.188S8,26.861,8,26.666V20
	c0-0.194,0.063-0.354,0.188-0.479s0.285-0.188,0.479-0.188h9.167c-1.292,0-2.393-0.455-3.302-1.364
	c-0.91-0.91-1.365-2.011-1.365-3.303c0-1.291,0.455-2.392,1.365-3.302c0.91-0.909,2.01-1.364,3.302-1.364
	c1.486,0,2.653,0.534,3.5,1.604L24,15.041l2.666-3.438c0.848-1.069,2.015-1.604,3.5-1.604c1.293,0,2.393,0.455,3.303,1.364
	c0.91,0.91,1.365,2.011,1.365,3.302c0,1.292-0.455,2.393-1.365,3.303c-0.91,0.909-2.01,1.364-3.303,1.364h9.167
	c0.194,0,0.354,0.063,0.479,0.188S40,19.806,40,20z"/>
</svg>
