<?xml version="1.0" encoding="utf-8"?>
<!-- Generator: Adobe Illustrator 16.0.0, SVG Export Plug-In . SVG Version: 6.00 Build 0)  -->
<!DOCTYPE svg PUBLIC "-//W3C//DTD SVG 1.1//EN" "http://www.w3.org/Graphics/SVG/1.1/DTD/svg11.dtd">
<svg version="1.1" id="Ebene_1" xmlns="http://www.w3.org/2000/svg" xmlns:xlink="http://www.w3.org/1999/xlink" x="0px" y="0px"
	 width="48px" height="48px" viewBox="0 0 48 48" style="enable-background:new 0 0 48 48;" xml:space="preserve">
<style type="text/css">
<![CDATA[
	.st0{fill:#FFFFFF;}
]]>
</style>
<path class="st0" d="M24,9C14,9,5.46,15.22,2,24c3.46,8.78,12,15,22,15c10.01,0,18.54-6.22,22-15C42.54,15.22,34.01,9,24,9z M24,34
	c-5.52,0-10-4.48-10-10c0-5.52,4.48-10,10-10c5.52,0,10,4.48,10,10C34,29.52,29.52,34,24,34z M24,18c-3.31,0-6,2.69-6,6
	c0,3.311,2.69,6,6,6c3.311,0,6-2.689,6-6C30,20.69,27.311,18,24,18z"/>
</svg>
