<?xml version="1.0" encoding="utf-8"?>
<!-- Generator: Adobe Illustrator 16.0.0, SVG Export Plug-In . SVG Version: 6.00 Build 0)  -->
<!DOCTYPE svg PUBLIC "-//W3C//DTD SVG 1.1//EN" "http://www.w3.org/Graphics/SVG/1.1/DTD/svg11.dtd">
<svg version="1.1" id="Ebene_1" xmlns="http://www.w3.org/2000/svg" xmlns:xlink="http://www.w3.org/1999/xlink" x="0px" y="0px"
	 width="300px" height="300px" viewBox="0 0 300 300" enable-background="new 0 0 300 300" xml:space="preserve">
<circle fill="#F4FAFC" cx="150.074" cy="150.046" r="145.846"/>
<path fill="#F7A858" d="M178.828,67.917c-9.967,0-17.225,3.518-26.155,13.792c-8.931-10.273-16.143-13.792-26.11-13.792
	c-10.079,0-20.614,9.425-14.97,22.031c5.645,12.606,20.333,11.427,20.333,11.427l-8.681-16.714c0,0,6.471-7.857,22.081,1.803
	l-5.253,11.007h25.246l-5.209-11.007c15.608-9.66,22.078-1.601,22.078-1.601l-8.688,16.614c0,0,14.678,1.128,20.322-11.478
	C199.466,77.392,188.909,67.917,178.828,67.917z"/>
<rect x="91.471" y="107.471" fill="#77C6C4" width="121" height="102"/>
<g>
	<path fill="#91D0D4" d="M222.471,120.471c0,2.761-2.238,5-5,5h-131c-2.761,0-5-2.239-5-5v-21c0-2.761,2.239-5,5-5h131
		c2.762,0,5,2.239,5,5V120.471z"/>
</g>
<rect x="141.471" y="94.471" fill="#F7A858" width="22" height="115"/>
<polygon fill="#F39323" points="163.471,133.633 163.471,125.471 141.485,125.471 "/>
<path fill="#FDE4D3" d="M159.627,202.471h-38.099c0,0-13.216-11.803-23.586-19.754c-12.094-9.271-31.648,10.734-17.134,22.225
	c14.514,11.49,40.72,35.529,43.946,35.529c3.225,0,75.996,0,75.996,0s5.342-1.41,7.535-5.291l14.186-0.755V186.85l-3.049,0.051
	c0,0-3.488-3.678-7.318-4.887c-3.83-1.211-35.474-6.391-47.304-9.072c-24.895-5.645-32.168,15.924-18.663,22.676
	C159.643,202.372,159.627,202.471,159.627,202.471z"/>
<g>
	<path fill="#ABDCF0" d="M222.956,179.471c-2.75,0-5.485,2.676-5.485,5.426v54.709c0,2.75,2.735,4.865,5.485,4.865h30.104
		c2.75,0,6.551-1.775,8.447-3.768c0,0,20.051-21.232,28.702-61.232H222.956L222.956,179.471z"/>
</g>
<path fill="#CDE8EB" d="M150,0C67.157,0,0,67.158,0,150c0,82.843,67.157,150,150,150s150-67.157,150-150C300,67.158,232.843,0,150,0
	z M150,291.836C71.666,291.836,8.163,228.335,8.163,150C8.163,71.666,71.666,8.163,150,8.163s141.837,63.502,141.837,141.836
	C291.837,228.335,228.334,291.836,150,291.836z"/>
</svg>
