<?xml version="1.0" encoding="utf-8"?>
<!-- Generator: Adobe Illustrator 16.0.0, SVG Export Plug-In . SVG Version: 6.00 Build 0)  -->
<!DOCTYPE svg PUBLIC "-//W3C//DTD SVG 1.1//EN" "http://www.w3.org/Graphics/SVG/1.1/DTD/svg11.dtd">
<svg version="1.1" id="Ebene_1" xmlns="http://www.w3.org/2000/svg" xmlns:xlink="http://www.w3.org/1999/xlink" x="0px" y="0px"
	 width="300px" height="300px" viewBox="0 0 300 300" style="enable-background:new 0 0 300 300;" xml:space="preserve">
<style type="text/css">
<![CDATA[
	.st0{fill:#F39323;}
	.st1{fill:#F3988C;}
	.st2{fill:#F4FAFC;}
	.st3{fill:#F7A858;}
	.st4{fill:#91D0D4;}
	.st5{fill:#FDE4D3;}
	.st6{fill:#CDE8EB;}
	.st7{fill:#77C6C4;}
]]>
</style>
<circle class="st2" cx="150.074" cy="150.046" r="145.846"/>
<path class="st3" d="M178.828,67.917c-9.966,0-17.224,3.518-26.155,13.792c-8.931-10.273-16.143-13.792-26.11-13.792
	c-10.079,0-20.614,9.425-14.97,22.031c5.645,12.606,20.333,11.427,20.333,11.427l-8.681-16.714c0,0,6.471-7.857,22.081,1.803
	l-5.253,11.007h25.246l-5.21-11.007c15.609-9.66,22.079-1.601,22.079-1.601l-8.688,16.614c0,0,14.678,1.128,20.322-11.478
	C199.466,77.392,188.909,67.917,178.828,67.917z"/>
<rect x="91.471" y="107.471" class="st7" width="121" height="102"/>
<g>
	<path class="st4" d="M222.471,120.471c0,2.761-2.239,5-5,5h-131c-2.761,0-5-2.239-5-5v-21c0-2.761,2.239-5,5-5h131
		c2.761,0,5,2.239,5,5V120.471z"/>
</g>
<rect x="141.471" y="94.471" class="st3" width="22" height="115"/>
<polygon class="st0" points="163.471,133.633 163.471,125.471 141.485,125.471 "/>
<path class="st5" d="M159.627,202.471h-38.099c0,0-13.216-11.803-23.586-19.754c-12.094-9.271-31.648,10.734-17.134,22.225
	c14.514,11.49,40.72,35.529,43.946,35.529c3.225,0,75.996,0,75.996,0s5.342-1.41,7.535-5.291l14.186-0.755V186.85l-3.049,0.051
	c0,0-3.489-3.679-7.319-4.888c-3.83-1.21-35.473-6.39-47.303-9.072c-24.895-5.644-32.168,15.924-18.663,22.676
	C159.643,202.372,159.627,202.471,159.627,202.471z"/>
<g>
	<path class="st1" d="M222.956,179.471c-2.75,0-5.485,2.676-5.485,5.426v54.708c0,2.75,2.735,4.866,5.485,4.866h30.105
		c2.75,0,6.551-1.775,8.447-3.768c0,0,20.051-21.232,28.702-61.232H222.956z"/>
</g>
<path class="st6" d="M150,0C67.157,0,0,67.158,0,150c0,82.843,67.157,150,150,150s150-67.157,150-150C300,67.158,232.843,0,150,0z
	 M150,291.836C71.666,291.836,8.163,228.335,8.163,150C8.163,71.666,71.666,8.163,150,8.163
	c78.334,0,141.837,63.502,141.837,141.836C291.837,228.335,228.334,291.836,150,291.836z"/>
</svg>
